<svg width="106" height="60" viewBox="0 0 106 60" fill="none" xmlns="http://www.w3.org/2000/svg">
<rect x="1.5" y="1.5" width="103" height="57" fill="#F2F2F2" stroke="black" stroke-width="3"/>
<g clip-path="url(#clip0_200_1385)">
<path d="M65.4592 51H40.5466V48.2067H37.7285V22.0069H35V19.1976H37.7368V16.4018C38.7058 16.4018 39.6291 16.4018 40.5524 16.4018L40.5433 16.3942V19.1741H65.4633V16.3942L65.4542 16.4018H68.284V19.1976H71V22.0363H68.2624V48.2243H65.4592V51.0008V51ZM40.5641 22.0388V48.1504H65.4343V22.0388H40.5641Z" fill="black"/>
<path d="M60.892 8V13.5925H65.4538C65.4538 14.5676 65.4538 15.4847 65.4538 16.4018L65.463 16.3942C65.3393 16.4018 65.2155 16.4152 65.0918 16.4152C57.0326 16.4161 48.9734 16.4161 40.9141 16.4152C40.7904 16.4152 40.6667 16.4018 40.543 16.3942L40.5521 16.4018C40.5521 15.4948 40.5521 14.5877 40.5521 13.6219H45.114V8H60.892ZM58.0414 13.5841V10.8613H47.9579V13.5841H58.0414Z" fill="black"/>
<path d="M47.958 13.5841V10.8613H58.0416V13.5841" fill="white"/>
<path d="M48.831 24.8271V45.3671H46.0801V24.8271H48.831Z" fill="black"/>
<path d="M59.929 45.3747H57.1855V24.8338H59.929V45.3747Z" fill="black"/>
</g>
<defs>
<clipPath id="clip0_200_1385">
<rect width="36" height="43" fill="white" transform="translate(35 8)"/>
</clipPath>
</defs>
</svg>
