<svg width="64" height="64" viewBox="0 0 64 64" fill="none" xmlns="http://www.w3.org/2000/svg">
<path d="M17.4391 5.778V0H46.5589V5.778L46.5881 5.75074C36.8627 5.75074 27.1353 5.75074 17.4099 5.75074L17.4391 5.778Z" fill="black"/>
<path d="M5.778 46.5589H0V17.4391H5.778L5.75073 17.4099C5.75073 27.1353 5.75073 36.8627 5.75073 46.5881L5.778 46.5589Z" fill="black"/>
<path d="M58.2219 17.4411H63.9999V46.5608H58.2219L58.2492 46.59C58.2492 36.8646 58.2492 27.1373 58.2492 17.4119L58.2219 17.4411Z" fill="black"/>
<path d="M46.5589 58.222V64H17.4391V58.222L17.4099 58.2493C27.1353 58.2493 36.8627 58.2493 46.5881 58.2493L46.5589 58.222Z" fill="black"/>
<path d="M11.6105 11.6086V5.778C13.5832 5.778 15.5112 5.778 17.4411 5.778L17.4119 5.75073V11.5813H11.5813L11.6105 11.6086Z" fill="black"/>
<path d="M46.5588 5.778H52.3894V11.6086L52.4186 11.5813H46.588V5.75073L46.5588 5.778Z" fill="black"/>
<path d="M5.778 17.4411V11.6086C7.75268 11.6086 9.68062 11.6086 11.6105 11.6086L11.5813 11.5813V17.4119H5.75073L5.778 17.4411Z" fill="black"/>
<path d="M52.3894 11.6086H58.2219V17.4411L58.2492 17.4119H52.4186V11.5813L52.3894 11.6086Z" fill="black"/>
<path d="M11.6086 52.3895H5.778C5.778 50.4168 5.778 48.4889 5.778 46.559L5.75073 46.5882H11.5813V52.4188L11.6086 52.3895Z" fill="black"/>
<path d="M58.2219 46.559V52.3895H52.3914L52.4186 52.4188V46.5882H58.2492L58.2219 46.559Z" fill="black"/>
<path d="M17.4391 58.2221H11.6066C11.6066 56.2474 11.6066 54.3194 11.6066 52.3895L11.5793 52.4187H17.4099V58.2493L17.4391 58.2221Z" fill="black"/>
<path d="M52.3914 52.3895V58.2221C50.4167 58.2221 48.4887 58.2221 46.5588 58.2221L46.588 58.2493V52.4187H52.4186L52.3914 52.3895Z" fill="black"/>
<path d="M11.667 29.0652H29.0594V11.6689H34.8997V29.0613H52.3311V34.9017H34.9387V52.333H29.0983V34.9406H11.667V29.0652Z" fill="black"/>
</svg>
