<svg width="36" height="45" viewBox="0 0 36 45" fill="none" xmlns="http://www.w3.org/2000/svg">
<path d="M28.8234 10.3795H32.4243V13.8139H36V17.2842H32.4581V41.5621H28.8246L28.8415 41.5795V17.3432H7.17059V41.5795L7.18747 41.5621H3.59614V17.3247H0V13.8544H3.54432V10.3795H7.18747L7.17059 10.3622V13.7989H28.839V10.3622L28.8222 10.3795H28.8234Z" fill="black"/>
<path d="M7.18728 10.3795V6.92085H10.7822V0H25.2066V6.88033H28.822V10.3807L28.8389 10.3633C21.6164 10.3633 14.3928 10.3633 7.17041 10.3633L7.18728 10.3807V10.3795ZM21.5875 3.46679H14.4338V6.86413H21.5875V3.46679Z" fill="black"/>
<path d="M28.8232 41.5634V45H7.18728C7.18728 43.8564 7.18728 42.7105 7.18728 41.5634L7.17041 41.5807H28.8389L28.822 41.5634H28.8232Z" fill="black"/>
<path d="M14.3687 20.8135V38.0746H10.834V20.8135H14.3687Z" fill="black"/>
<path d="M21.6548 20.7995H25.1919V38.0582H21.6548V20.7995Z" fill="black"/>
</svg>
