<svg width="42" height="42" viewBox="0 0 42 42" fill="none" xmlns="http://www.w3.org/2000/svg">
<g clip-path="url(#clip0_184_1351)">
<path d="M5.96286 5.94868H0.00585938V0.0159912H5.93477V5.97675L5.96487 5.94868H5.96286Z" fill="black"/>
<path d="M36.1112 6.01289V0H41.994V5.98482C40.0458 5.98482 38.0634 5.98482 36.0791 5.98482L36.1112 6.01289Z" fill="black"/>
<path d="M5.93262 5.9768H11.9538V11.9937L11.9839 11.9656H5.96271C5.96271 9.92859 5.96271 7.93966 5.96271 5.94873L5.93262 5.9768Z" fill="black"/>
<path d="M30.0898 12.0298V6.01086C32.1243 6.01086 34.1166 6.01086 36.109 6.01086L36.0769 5.98279C36.0769 7.93763 36.0769 9.89247 36.0769 12.0017C34.0143 12.0017 32.036 12.0017 30.0557 12.0017L30.0878 12.0298H30.0898Z" fill="black"/>
<path d="M11.9541 11.9937H18.0134C18.0134 14.0087 18.0134 15.9916 18.0134 17.9745L18.0415 17.9424H11.9842C11.9842 15.9314 11.9842 13.9485 11.9842 11.9636L11.9541 11.9917V11.9937Z" fill="black"/>
<path d="M24.0712 18.0467V12.0278C26.1057 12.0278 28.0981 12.0278 30.0904 12.0278L30.0583 11.9998C30.0583 13.9546 30.0583 15.9094 30.0583 18.0187C27.9957 18.0187 26.0174 18.0187 24.0371 18.0187L24.0692 18.0467H24.0712Z" fill="black"/>
<path d="M18.0498 24.0636C18.0458 22.0246 18.0418 19.9855 18.0398 17.9445L18.0117 17.9765C20.0302 17.9986 22.0486 18.0227 24.069 18.0467L24.0369 18.0186C24.0369 20.0096 24.0349 22.0005 24.0309 23.9934L24.059 23.9614C22.0446 23.9874 20.0302 24.0115 18.0157 24.0355L18.0478 24.0636H18.0498Z" fill="black"/>
<path d="M12.0282 30.0805V24.0616C14.0627 24.0616 16.0551 24.0616 18.0475 24.0616L18.0154 24.0336C18.0154 25.9884 18.0154 27.9432 18.0154 30.0525C15.9528 30.0525 13.9745 30.0525 11.9941 30.0525L12.0262 30.0805H12.0282Z" fill="black"/>
<path d="M30.0435 30.0163H24.0564C24.0564 27.9813 24.0564 25.9723 24.0564 23.9613L24.0283 23.9934C25.9886 23.9934 27.9488 23.9934 30.0114 23.9934V30.0484L30.0415 30.0203L30.0435 30.0163Z" fill="black"/>
<path d="M5.96857 36.0613V30.0785C8.00507 30.0785 10.0155 30.0785 12.0279 30.0785L11.9958 30.0504C11.9958 32.0093 11.9958 33.9681 11.9958 36.0312H5.93848L5.96657 36.0593L5.96857 36.0613Z" fill="black"/>
<path d="M30.0156 30.0464H36.0368V36.0633L36.0669 36.0352H30.0457C30.0457 33.9982 30.0457 32.0092 30.0457 30.0183L30.0156 30.0464Z" fill="black"/>
<path d="M5.94095 36.0333V41.994H0V36.0613C1.99436 36.0613 3.98271 36.0613 5.96904 36.0613L5.94095 36.0312V36.0333Z" fill="black"/>
<path d="M36.0352 36.0633H42.0002V42H36.0653C36.0653 40.007 36.0653 38.0201 36.0653 36.0332L36.0352 36.0613V36.0633Z" fill="black"/>
</g>
<defs>
<clipPath id="clip0_184_1351">
<rect width="42" height="42" fill="white"/>
</clipPath>
</defs>
</svg>
