<svg width="106" height="117" viewBox="0 0 106 117" fill="none" xmlns="http://www.w3.org/2000/svg">
<rect x="1.50001" y="58.5" width="103" height="57" fill="black" stroke="black" stroke-width="3"/>
<path d="M15 107H43" stroke="white" stroke-width="3"/>
<path d="M56 107H92" stroke="white" stroke-width="3"/>
<path d="M49.6799 108.841L36.6944 91.6582L71.1 65.6574L84.0855 82.8405L49.6799 108.841ZM79.7762 82.2475L70.5114 69.9879L55.795 81.1093L65.0591 93.3681L79.7755 82.2467L79.7762 82.2475ZM50.2788 104.521L60.0741 97.1185L50.8094 84.859L41.0141 92.2614L50.2788 104.521Z" fill="white"/>
<path d="M3.00001 1.5L1.50001 1.5L1.50001 3L1.50001 57L1.50001 58.5L3.00001 58.5L103 58.5L104.5 58.5L104.5 57L104.5 3L104.5 1.5L103 1.5L3.00001 1.5Z" fill="#F2F2F2" stroke="black" stroke-width="3"/>
<path d="M15 50H48" stroke="black" stroke-width="3"/>
<path d="M96.1145 22.0695L61.1047 48.2903L58.7127 45.0966L56.0284 47.1071L53.6163 43.8865L48.2314 47.9196L45.8339 44.7183L51.1872 40.7089L48.7752 37.4883L51.4595 35.4779L49.0378 32.2444L84.0791 6L96.1145 22.0695ZM61.3453 43.0377L82.8713 26.9157L75.7075 17.3506L54.1734 33.4788L56.5582 36.6628L53.9134 38.6436L56.3255 41.8642L58.9783 39.8773L61.3461 43.0388L61.3453 43.0377ZM85.6111 24.8554L90.9608 20.8486L83.7938 11.2793L78.444 15.286L85.6111 24.8554Z" fill="black"/>
</svg>
